<?xml version="1.0" encoding="UTF-8"?>
<svg width="18px" height="16px" viewBox="0 0 18 16" version="1.1" xmlns="http://www.w3.org/2000/svg" xmlns:xlink="http://www.w3.org/1999/xlink">
    <!-- Generator: sketchtool 60 (101010) - https://sketch.com -->
    <title>EDD7B2D0-EE23-4F84-8BDD-8B1EC0C2C275</title>
    <desc>Created with sketchtool.</desc>
    <defs>
        <linearGradient x1="0%" y1="10.7386311%" x2="100%" y2="89.2613689%" id="linearGradient-1">
            <stop stop-color="#A647F6" offset="0%"></stop>
            <stop stop-color="#5530EA" offset="100%"></stop>
        </linearGradient>
    </defs>
    <g id="Приложение-New" stroke="none" stroke-width="1" fill="none" fill-rule="evenodd">
        <g id="Icons" transform="translate(-256.000000, -101.000000)" fill="url(#linearGradient-1)" fill-rule="nonzero">
            <g id="Header" transform="translate(100.000000, 100.000000)">
                <g id="Arrow-Back" transform="translate(156.000000, 1.000000)">
                    <path d="M17.25,7.1777645 L2.287875,7.1777645 L8.017125,1.37509783 C8.317125,1.07124737 8.32875,0.566424936 8.043,0.24742182 C7.757625,-0.071182541 7.282875,-0.0839426656 6.9825,0.219907802 L0.4395,6.84719752 C0.156375,7.14865547 0,7.54900437 0,7.97527229 C0,8.40114145 0.156375,8.80188911 0.452625,9.11650593 L6.982875,15.730238 C7.128,15.8773782 7.314,15.9503502 7.5,15.9503502 C7.698,15.9503502 7.896,15.8674094 8.043375,15.702724 C8.329125,15.3837209 8.3175,14.8792972 8.0175,14.5754467 L2.26425,8.77278008 L17.25,8.77278008 C17.664,8.77278008 18,8.41549659 18,7.97527229 C18,7.53504799 17.664,7.1777645 17.25,7.1777645 L17.25,7.1777645 Z" id="Path"></path>
                </g>
            </g>
        </g>
    </g>
</svg>